<svg width="64" height="64" viewBox="0 0 64 64" xmlns="http://www.w3.org/2000/svg">
  <!-- Rocky AI Icon - Isometric Mountain Range -->
  <defs>
    <linearGradient id="mountainGradient" x1="0%" y1="0%" x2="100%" y2="100%">
      <stop offset="0%" style="stop-color:#F5F5F5;stop-opacity:1" />
      <stop offset="30%" style="stop-color:#E0E0E0;stop-opacity:1" />
      <stop offset="70%" style="stop-color:#B0B0B0;stop-opacity:1" />
      <stop offset="100%" style="stop-color:#808080;stop-opacity:1" />
    </linearGradient>
    <linearGradient id="shadowGradient" x1="0%" y1="0%" x2="100%" y2="100%">
      <stop offset="0%" style="stop-color:#404040;stop-opacity:0.3" />
      <stop offset="100%" style="stop-color:#202020;stop-opacity:0.6" />
    </linearGradient>
    <filter id="mountainShadow">
      <feGaussianBlur stdDeviation="1" result="coloredBlur"/>
      <feOffset in="coloredBlur" dx="2" dy="2" result="offsetBlur"/>
      <feMerge> 
        <feMergeNode in="offsetBlur"/>
        <feMergeNode in="SourceGraphic"/>
      </feMerge>
    </filter>
  </defs>
  
  <!-- Background -->
  <rect width="64" height="64" fill="#2A2A2A"/>
  
  <!-- Mountain Formation -->
  <g transform="translate(32, 40)" filter="url(#mountainShadow)">
    <!-- Main peak (tallest) -->
    <polygon points="0,-20 8,-12 8,8 -8,8" fill="url(#mountainGradient)"/>
    
    <!-- Left peak -->
    <polygon points="-8,8 -16,0 -16,8" fill="url(#mountainGradient)"/>
    
    <!-- Right peak -->
    <polygon points="8,8 16,4 16,8" fill="url(#mountainGradient)"/>
    
    <!-- Center-left peak -->
    <polygon points="-4,8 -8,4 -8,8" fill="url(#mountainGradient)"/>
    
    <!-- Center-right peak -->
    <polygon points="4,8 8,4 8,8" fill="url(#mountainGradient)"/>
    
    <!-- Base -->
    <polygon points="-16,8 16,8 12,12 -12,12" fill="url(#mountainGradient)"/>
  </g>
  
  <!-- Ground shadow -->
  <ellipse cx="32" cy="52" rx="20" ry="4" fill="url(#shadowGradient)" opacity="0.4"/>
  
  <!-- Texture details -->
  <g transform="translate(32, 40)" opacity="0.3">
    <!-- Cracks and ridges -->
    <line x1="-6" y1="-10" x2="-4" y2="-6" stroke="#606060" stroke-width="0.5"/>
    <line x1="2" y1="-8" x2="4" y2="-4" stroke="#606060" stroke-width="0.5"/>
    <line x1="-2" y1="2" x2="2" y2="4" stroke="#606060" stroke-width="0.5"/>
    <line x1="6" y1="0" x2="8" y2="2" stroke="#606060" stroke-width="0.5"/>
  </g>
</svg>
