<svg width="32" height="32" viewBox="0 0 32 32" xmlns="http://www.w3.org/2000/svg">
  <!-- Rocky AI Favicon - Simplified Mountain Icon -->
  <defs>
    <linearGradient id="mountainGradient" x1="0%" y1="0%" x2="100%" y2="100%">
      <stop offset="0%" style="stop-color:#F5F5F5;stop-opacity:1" />
      <stop offset="30%" style="stop-color:#E0E0E0;stop-opacity:1" />
      <stop offset="70%" style="stop-color:#B0B0B0;stop-opacity:1" />
      <stop offset="100%" style="stop-color:#808080;stop-opacity:1" />
    </linearGradient>
    <linearGradient id="blueAccent" x1="0%" y1="0%" x2="100%" y2="100%">
      <stop offset="0%" style="stop-color:#00BFFF;stop-opacity:0.8" />
      <stop offset="100%" style="stop-color:#0066CC;stop-opacity:0.6" />
    </linearGradient>
  </defs>
  
  <!-- Background -->
  <rect width="32" height="32" fill="#2A2A2A" rx="6"/>
  
  <!-- Mountain Formation -->
  <g transform="translate(16, 20)">
    <!-- Main peak (tallest) -->
    <polygon points="0,-12 4,-8 4,4 -4,4" fill="url(#mountainGradient)"/>
    
    <!-- Left peak -->
    <polygon points="-4,4 -8,0 -8,4" fill="url(#mountainGradient)"/>
    
    <!-- Right peak -->
    <polygon points="4,4 8,2 8,4" fill="url(#mountainGradient)"/>
    
    <!-- Center-left peak -->
    <polygon points="-2,4 -4,2 -4,4" fill="url(#mountainGradient)"/>
    
    <!-- Center-right peak -->
    <polygon points="2,4 4,2 4,4" fill="url(#mountainGradient)"/>
    
    <!-- Base -->
    <polygon points="-8,4 8,4 6,6 -6,6" fill="url(#mountainGradient)"/>
    
    <!-- Blue accent -->
    <rect x="-2" y="2" width="4" height="1" fill="url(#blueAccent)" rx="0.5"/>
  </g>
  
  <!-- Ground shadow -->
  <ellipse cx="16" cy="28" rx="12" ry="2" fill="#1A1A1A" opacity="0.4"/>
</svg>
